<?xml version="1.0" standalone="no"?>
<!DOCTYPE svg PUBLIC "-//W3C//DTD SVG 20010904//EN"
 "http://www.w3.org/TR/2001/REC-SVG-20010904/DTD/svg10.dtd">
<svg version="1.0" xmlns="http://www.w3.org/2000/svg"
 width="300.000000pt" height="300.000000pt" viewBox="0 0 300.000000 300.000000"
 preserveAspectRatio="xMidYMid meet">
<metadata>
Created by potrace 1.10, written by Peter Selinger 2001-2011
</metadata>
<g transform="translate(0.000000,300.000000) scale(0.100000,-0.100000)"
fill="#0070c0" stroke="none">
<path d="M1015 2981 c-22 -10 -48 -27 -58 -39 -11 -11 -94 -195 -186 -409
l-167 -388 -282 -5 c-253 -4 -283 -7 -299 -23 -16 -15 -18 -40 -21 -180 -2
-96 1 -173 7 -190 6 -15 25 -36 43 -47 33 -20 51 -20 1457 -20 l1423 0 34 34
34 34 0 161 c0 168 -6 201 -44 220 -13 7 -116 12 -290 14 l-269 2 -163 380
c-90 209 -170 392 -178 407 -19 32 -90 68 -134 68 -66 0 -138 -50 -161 -113
-25 -65 -15 -100 119 -416 72 -169 130 -312 130 -319 0 -9 -116 -12 -515 -12
-283 0 -515 3 -515 6 0 4 40 97 89 208 192 434 186 418 185 473 0 66 -36 122
-96 152 -54 26 -91 26 -143 2z"/>
<path d="M135 1538 c2 -13 48 -291 100 -618 53 -327 102 -616 109 -641 37
-132 161 -242 301 -268 75 -14 1630 -15 1703 -1 114 21 224 103 280 209 29 54
38 93 92 428 33 202 80 490 105 638 25 149 45 271 45 273 0 1 -617 2 -1370 2
l-1370 0 5 -22z m851 -243 c14 -9 34 -30 44 -48 19 -30 20 -53 20 -398 0 -363
0 -366 -22 -399 -38 -55 -73 -75 -132 -75 -42 0 -60 6 -88 27 -67 51 -69 69
-66 463 3 313 5 353 21 382 41 76 146 99 223 48z m1194 8 c14 -8 34 -27 45
-41 19 -26 20 -45 23 -403 l3 -375 -23 -34 c-37 -53 -71 -73 -127 -74 -56 -1
-91 19 -128 74 -23 33 -23 36 -23 397 0 292 3 369 14 391 41 79 140 109 216
65z m-602 -3 c18 -11 41 -34 52 -52 19 -31 20 -51 20 -404 0 -369 0 -371 -23
-405 -32 -48 -81 -71 -140 -66 -55 5 -93 29 -122 78 -19 32 -20 52 -20 401 0
356 1 367 21 395 53 72 144 94 212 53z"/>
</g>
</svg>
