 <svg  version="1.0" xmlns="http://www.w3.org/2000/svg"  width="300.000000pt" height="300.000000pt" viewBox="0 0 300.000000 300.000000"  preserveAspectRatio="xMidYMid meet">  <g transform="translate(0.000000,300.000000) scale(0.100000,-0.100000)" fill="#0070c0" stroke="none"> <path d="M1408 2672 c-32 -14 -1233 -1005 -1365 -1126 -25 -23 -43 -47 -43 -60 0 -12 30 -57 66 -101 74 -89 80 -95 110 -95 13 0 259 198 664 536 354 295 648 538 655 540 6 3 303 -238 660 -536 408 -340 656 -540 669 -540 12 0 26 4 32 8 29 18 144 168 144 187 0 26 -31 55 -252 239 l-178 147 0 389 c0 377 -1 391 -20 410 -19 19 -33 20 -213 20 -158 0 -197 -3 -215 -16 -21 -15 -22 -20 -22 -210 0 -107 -2 -194 -5 -194 -3 0 -109 87 -236 193 -126 105 -246 200 -267 209 -21 10 -61 17 -92 17 -31 0 -71 -7 -92 -17z"/> <path d="M963 1769 l-533 -440 0 -465 c0 -503 0 -502 54 -538 22 -14 69 -16 401 -16 l375 0 0 355 0 355 240 0 240 0 0 -355 0 -355 375 0 c332 0 379 2 401 16 54 36 54 35 54 538 l0 465 -531 438 c-292 241 -534 439 -537 440 -4 1 -247 -196 -539 -438z"/> </g> </svg> 