 <svg  version="1.0" xmlns="http://www.w3.org/2000/svg"  width="300.000000pt" height="300.000000pt" viewBox="0 0 300.000000 300.000000"  preserveAspectRatio="xMidYMid meet">  <g transform="translate(0.000000,300.000000) scale(0.100000,-0.100000)" fill="#0070c0" stroke="none"> <path d="M1305 2989 c-230 -31 -449 -113 -635 -239 -337 -228 -552 -548 -642 -957 -18 -81 -22 -131 -22 -288 0 -209 15 -307 76 -490 144 -433 489 -779 930 -934 158 -55 291 -75 488 -75 265 0 450 43 679 160 628 319 947 1029 771 1718 -50 199 -146 385 -289 566 -201 253 -524 449 -859 520 -113 24 -384 35 -497 19z m250 -524 c11 -7 142 -124 290 -260 149 -137 361 -329 472 -427 112 -99 207 -188 213 -198 17 -31 11 -67 -13 -96 -20 -23 -34 -28 -85 -32 l-61 -4 -3 -367 c-3 -361 -3 -367 -27 -418 -13 -29 -41 -69 -63 -89 -81 -73 -38 -69 -778 -69 -604 0 -668 2 -702 17 -62 28 -103 65 -134 120 l-29 53 -3 378 -3 377 -55 0 c-48 0 -60 4 -85 29 -30 30 -37 67 -19 101 5 10 90 89 187 176 98 87 316 284 485 437 169 152 318 282 330 287 25 9 52 5 83 -15z m577 -18 c58 -40 63 -56 66 -256 l4 -184 -29 23 c-15 12 -102 90 -192 173 -91 84 -171 157 -180 163 -25 19 1 61 52 85 57 26 237 24 279 -4z"/> <path d="M1428 1890 c-121 -36 -197 -169 -169 -294 16 -70 58 -126 123 -162 45 -24 64 -29 123 -29 82 1 134 23 185 81 45 51 62 97 61 165 0 72 -18 115 -71 173 -61 66 -163 93 -252 66z"/> <path d="M1195 1266 c-60 -28 -97 -66 -124 -126 -18 -40 -21 -65 -21 -242 l0 -198 455 0 455 0 0 178 c0 208 -11 261 -68 324 -20 23 -59 52 -87 64 -48 23 -59 24 -305 24 -247 0 -257 -1 -305 -24z"/> </g> </svg> 