 <svg  version="1.0" xmlns="http://www.w3.org/2000/svg"  width="300.000000pt" height="300.000000pt" viewBox="0 0 300.000000 300.000000"  preserveAspectRatio="xMidYMid meet">  <g transform="translate(0.000000,300.000000) scale(0.100000,-0.100000)" fill="#0070c0" stroke="none"> <path d="M465 2981 c-49 -23 -89 -64 -109 -113 -14 -33 -16 -187 -16 -1365 l0 -1328 24 -50 c27 -59 46 -77 106 -104 44 -20 61 -21 1025 -21 654 0 993 4 1018 11 49 13 105 63 128 114 18 38 19 95 19 1063 l0 1022 -268 0 c-218 0 -279 3 -323 16 -95 28 -163 91 -205 189 -19 42 -20 72 -23 423 l-1 162 -667 0 c-629 0 -670 -2 -708 -19z m862 -587 c223 -178 248 -206 222 -252 -8 -15 -27 -33 -42 -42 -25 -14 -30 -13 -67 7 l-40 21 0 -131 c0 -73 -3 -142 -6 -155 -15 -54 -135 -72 -179 -27 -25 24 -25 27 -25 194 0 196 3 191 -95 191 -98 0 -95 5 -95 -191 0 -167 0 -170 -25 -194 -33 -34 -117 -36 -152 -3 -22 21 -23 28 -23 170 0 81 -2 148 -5 148 -3 0 -17 -7 -31 -17 -57 -37 -134 -1 -134 63 0 37 -1 37 265 253 129 105 166 130 192 130 27 1 66 -25 240 -165z m958 -679 c39 -38 32 -86 -16 -110 -24 -13 -139 -15 -773 -15 l-745 0 -25 23 c-36 32 -39 74 -6 107 20 20 33 20 780 20 l761 0 24 -25z m-6 -391 c38 -31 40 -63 7 -101 l-24 -28 -761 0 -760 0 -22 22 c-38 38 -24 103 26 123 11 5 354 9 762 9 l741 1 31 -26z m-16 -386 c52 -27 61 -75 22 -113 l-24 -25 -757 0 -758 0 -23 22 c-29 27 -31 80 -3 108 20 20 33 20 771 20 551 0 756 -3 772 -12z m16 -405 c11 -10 24 -32 27 -50 5 -26 1 -37 -19 -57 l-26 -26 -759 0 c-749 0 -758 0 -780 20 -29 27 -29 83 -2 110 20 20 33 20 779 20 708 0 760 -1 780 -17z"/> <path d="M2000 2710 c0 -230 0 -234 25 -275 40 -69 66 -75 338 -75 l232 0 -110 111 c-61 61 -194 192 -297 291 l-188 180 0 -232z"/> </g> </svg> 