 <svg  version="1.0" xmlns="http://www.w3.org/2000/svg"  width="300.000000pt" height="300.000000pt" viewBox="0 0 300.000000 300.000000"  preserveAspectRatio="xMidYMid meet">  <g transform="translate(0.000000,300.000000) scale(0.100000,-0.100000)" fill="#0070c0" stroke="none"> <path d="M1380 2589 c-93 -11 -229 -49 -316 -89 -233 -105 -442 -326 -534 -565 l-33 -84 -51 -11 c-65 -14 -138 -61 -181 -117 -167 -218 -83 -665 141 -759 67 -28 213 -7 262 39 30 28 29 52 -14 329 -39 257 -42 316 -19 414 75 326 321 578 649 667 115 31 317 31 432 0 321 -87 563 -330 644 -648 27 -105 26 -169 -4 -363 -27 -179 -49 -238 -127 -353 -121 -179 -331 -319 -549 -365 -37 -8 -124 -14 -202 -14 -75 0 -148 -4 -162 -10 -87 -33 -88 -209 -2 -245 50 -21 322 -21 372 0 35 14 64 61 64 104 0 15 13 23 58 36 192 55 416 214 529 376 25 35 32 39 58 34 17 -3 60 -8 97 -11 84 -8 137 15 202 87 86 95 127 217 127 374 0 154 -33 255 -112 340 -46 50 -92 74 -157 84 l-46 6 -36 90 c-62 151 -114 229 -235 350 -124 124 -220 187 -363 241 -156 58 -339 82 -492 63z"/> <path d="M1331 2255 c-35 -8 -107 -35 -159 -61 -81 -39 -110 -60 -182 -133 -94 -95 -142 -173 -182 -301 -20 -64 -23 -95 -23 -215 1 -127 3 -148 29 -220 31 -91 61 -147 119 -223 l40 -53 -23 -105 c-28 -126 -23 -157 26 -162 23 -2 58 12 130 52 l100 56 56 -20 c133 -47 310 -50 444 -9 237 73 399 229 480 464 26 72 28 93 29 220 0 120 -3 151 -23 215 -40 127 -88 206 -182 301 -143 144 -305 209 -515 208 -55 0 -129 -7 -164 -14z m-125 -590 c33 -21 64 -73 64 -108 0 -80 -59 -137 -143 -137 -40 0 -53 5 -84 33 -31 29 -37 41 -40 88 -3 41 0 61 15 85 39 61 127 79 188 39z m348 11 c97 -41 107 -186 16 -240 -36 -21 -104 -21 -141 1 -41 24 -72 92 -63 137 16 89 104 137 188 102z m372 -2 c124 -59 82 -254 -55 -254 -82 0 -141 58 -141 138 0 60 76 132 138 132 13 0 39 -7 58 -16z"/> </g> </svg> 